<svg width="225" height="18" viewBox="0 0 225 18" fill="none" xmlns="http://www.w3.org/2000/svg">
<path d="M210.922 0.192383H216.37C217.954 0.192383 219.394 0.512383 220.69 1.15238C222.002 1.77638 223.042 2.72038 223.81 3.98438C224.578 5.24838 224.962 6.78438 224.962 8.59238C224.962 10.4004 224.578 11.9364 223.81 13.2004C223.042 14.4644 222.002 15.4164 220.69 16.0564C219.394 16.6804 217.954 16.9924 216.37 16.9924H210.922V0.192383ZM216.082 14.2324C217.698 14.2324 219.042 13.7764 220.114 12.8644C221.202 11.9524 221.746 10.5284 221.746 8.59238C221.746 6.65638 221.202 5.23238 220.114 4.32038C219.042 3.39238 217.698 2.92838 216.082 2.92838H214.066V14.2324H216.082Z" fill="white"/>
<path d="M201.012 17.184C199.396 17.184 197.94 16.816 196.644 16.08C195.364 15.328 194.356 14.304 193.62 13.008C192.884 11.696 192.516 10.224 192.516 8.592C192.516 6.96 192.884 5.496 193.62 4.2C194.356 2.888 195.364 1.864 196.644 1.128C197.94 0.376 199.396 0 201.012 0C202.612 0 204.052 0.376 205.332 1.128C206.628 1.864 207.644 2.888 208.38 4.2C209.116 5.496 209.484 6.96 209.484 8.592C209.484 10.224 209.116 11.696 208.38 13.008C207.644 14.304 206.628 15.328 205.332 16.08C204.052 16.816 202.612 17.184 201.012 17.184ZM195.708 8.592C195.708 9.696 195.932 10.696 196.38 11.592C196.844 12.472 197.476 13.168 198.276 13.68C199.076 14.176 199.98 14.424 200.988 14.424C201.996 14.424 202.9 14.176 203.7 13.68C204.516 13.168 205.148 12.472 205.596 11.592C206.06 10.696 206.292 9.696 206.292 8.592C206.292 7.488 206.06 6.488 205.596 5.592C205.148 4.696 204.516 4 203.7 3.504C202.9 2.992 201.996 2.736 200.988 2.736C199.98 2.736 199.076 2.992 198.276 3.504C197.476 4 196.844 4.696 196.38 5.592C195.932 6.488 195.708 7.488 195.708 8.592Z" fill="white"/>
<path d="M183.434 17.184C181.818 17.184 180.361 16.816 179.065 16.08C177.785 15.328 176.778 14.304 176.042 13.008C175.306 11.696 174.938 10.224 174.938 8.592C174.938 6.96 175.306 5.496 176.042 4.2C176.778 2.888 177.785 1.864 179.065 1.128C180.361 0.376 181.818 0 183.434 0C185.034 0 186.473 0.376 187.753 1.128C189.049 1.864 190.065 2.888 190.801 4.2C191.537 5.496 191.906 6.96 191.906 8.592C191.906 10.224 191.537 11.696 190.801 13.008C190.065 14.304 189.049 15.328 187.753 16.08C186.473 16.816 185.034 17.184 183.434 17.184ZM178.13 8.592C178.13 9.696 178.353 10.696 178.801 11.592C179.265 12.472 179.897 13.168 180.697 13.68C181.497 14.176 182.401 14.424 183.41 14.424C184.418 14.424 185.321 14.176 186.121 13.68C186.937 13.168 187.57 12.472 188.018 11.592C188.482 10.696 188.714 9.696 188.714 8.592C188.714 7.488 188.482 6.488 188.018 5.592C187.57 4.696 186.937 4 186.121 3.504C185.321 2.992 184.418 2.736 183.41 2.736C182.401 2.736 181.497 2.992 180.697 3.504C179.897 4 179.265 4.696 178.801 5.592C178.353 6.488 178.13 7.488 178.13 8.592Z" fill="white"/>
<path d="M173.503 0.192383V16.9924H170.335V9.76838H162.847V16.9924H159.703V0.192383H162.847V7.00838H170.335V0.192383H173.503Z" fill="white"/>
<path d="M145.367 0.192383H152.231C153.383 0.192383 154.375 0.416383 155.207 0.864383C156.055 1.29638 156.703 1.90438 157.151 2.68838C157.599 3.45638 157.823 4.35238 157.823 5.37638C157.823 7.00838 157.071 8.21638 155.567 9.00038C156.143 9.36838 156.599 9.85638 156.935 10.4644C157.287 11.0724 157.495 11.7524 157.559 12.5044L157.967 16.9924H154.823L154.415 12.8644C154.367 12.2244 154.135 11.7044 153.719 11.3044C153.303 10.8884 152.783 10.6804 152.159 10.6804H148.535V16.9924H145.367V0.192383ZM152.087 7.94438C152.967 7.94438 153.623 7.70438 154.055 7.22438C154.503 6.72838 154.727 6.11238 154.727 5.37638C154.727 4.64038 154.503 4.04038 154.055 3.57638C153.623 3.09638 152.967 2.85638 152.087 2.85638H148.535V7.94438H152.087Z" fill="white"/>
<path d="M135.449 17.184C133.833 17.184 132.377 16.816 131.081 16.08C129.801 15.328 128.793 14.304 128.057 13.008C127.321 11.696 126.953 10.224 126.953 8.592C126.953 6.96 127.321 5.496 128.057 4.2C128.793 2.888 129.801 1.864 131.081 1.128C132.377 0.376 133.833 0 135.449 0C137.049 0 138.489 0.376 139.769 1.128C141.065 1.864 142.081 2.888 142.817 4.2C143.553 5.496 143.921 6.96 143.921 8.592C143.921 10.224 143.553 11.696 142.817 13.008C142.081 14.304 141.065 15.328 139.769 16.08C138.489 16.816 137.049 17.184 135.449 17.184ZM130.145 8.592C130.145 9.696 130.369 10.696 130.817 11.592C131.281 12.472 131.913 13.168 132.713 13.68C133.513 14.176 134.417 14.424 135.425 14.424C136.433 14.424 137.337 14.176 138.137 13.68C138.953 13.168 139.585 12.472 140.033 11.592C140.497 10.696 140.729 9.696 140.729 8.592C140.729 7.488 140.497 6.488 140.033 5.592C139.585 4.696 138.953 4 138.137 3.504C137.337 2.992 136.433 2.736 135.425 2.736C134.417 2.736 133.513 2.992 132.713 3.504C131.913 4 131.281 4.696 130.817 5.592C130.369 6.488 130.145 7.488 130.145 8.592Z" fill="white"/>
<path d="M113.828 0.192383H120.308C121.892 0.192383 123.164 0.576383 124.124 1.34438C125.1 2.09638 125.588 3.15238 125.588 4.51238C125.588 5.24838 125.388 5.91238 124.988 6.50438C124.588 7.09638 124.1 7.53638 123.524 7.82438C124.388 8.14438 125.084 8.65638 125.612 9.36038C126.14 10.0644 126.404 10.9524 126.404 12.0244C126.404 13.5764 125.868 14.7924 124.796 15.6724C123.74 16.5524 122.324 16.9924 120.548 16.9924H113.828V0.192383ZM120.236 14.2324C122.316 14.2324 123.356 13.4404 123.356 11.8564C123.356 10.2564 122.316 9.45638 120.236 9.45638H116.948V14.2324H120.236ZM120.092 6.76838C120.924 6.76838 121.548 6.60038 121.964 6.26438C122.396 5.91238 122.612 5.40838 122.612 4.75238C122.612 4.09638 122.396 3.60038 121.964 3.26438C121.532 2.91238 120.892 2.73638 120.044 2.73638H116.948V6.76838H120.092Z" fill="white"/>
<path d="M111.558 0.192383V16.9924H108.39V9.76838H100.902V16.9924H97.7578V0.192383H100.902V7.00838H108.39V0.192383H111.558Z" fill="white"/>
<path d="M88.3955 17.184C86.9235 17.184 85.5635 16.856 84.3155 16.2C83.0675 15.544 82.0675 14.576 81.3155 13.296C80.5635 12 80.1875 10.432 80.1875 8.592C80.1875 6.752 80.5715 5.192 81.3395 3.912C82.1075 2.616 83.1315 1.64 84.4115 0.983999C85.6915 0.328 87.0835 0 88.5875 0C89.9315 0 91.1475 0.248 92.2355 0.743999C93.3395 1.24 94.2195 1.936 94.8755 2.832C95.5315 3.728 95.8995 4.752 95.9795 5.904H92.8115C92.6675 4.96 92.2035 4.2 91.4195 3.624C90.6515 3.032 89.6995 2.736 88.5635 2.736C87.5555 2.736 86.6435 2.968 85.8275 3.432C85.0275 3.896 84.3955 4.568 83.9315 5.448C83.4675 6.328 83.2355 7.376 83.2355 8.592C83.2355 9.808 83.4675 10.872 83.9315 11.784C84.3955 12.68 85.0275 13.368 85.8275 13.848C86.6275 14.328 87.5235 14.568 88.5155 14.568C89.2675 14.568 89.9875 14.416 90.6755 14.112C91.3635 13.808 91.9155 13.408 92.3315 12.912C92.7475 12.4 92.9555 11.848 92.9555 11.256C92.9555 10.984 92.8755 10.776 92.7155 10.632C92.5715 10.472 92.3715 10.392 92.1155 10.392H88.7075V7.968H93.1475C93.8995 7.968 94.5555 8.232 95.1155 8.76C95.6755 9.288 95.9555 9.944 95.9555 10.728V16.992H93.1235V14.328C92.8035 15.176 92.2115 15.864 91.3475 16.392C90.4835 16.92 89.4995 17.184 88.3955 17.184Z" fill="white"/>
<path d="M75.5469 0.192383H78.7149V16.9924H75.5469V0.192383Z" fill="white"/>
<path d="M62.75 0.192383H73.91V2.92838H65.894V7.00838H72.326V9.74438H65.894V14.2324H74.174V16.9924H62.75V0.192383Z" fill="white"/>
<path d="M46.6094 0.192383H50.0174L57.3134 12.0484V0.192383H60.4574V16.9924H57.0494L49.7534 5.16038V16.9924H46.6094V0.192383Z" fill="white"/>
<path d="M29.7969 0.192383H40.3089V2.04038H31.8609V7.39238H38.7489V9.24038H31.8609V15.1444H40.5729V16.9924H29.7969V0.192383Z" fill="white"/>
<path d="M26.9221 0.192383V16.9924H24.8581V9.24038H15.9781V16.9924H13.9141V0.192383H15.9781V7.39238H24.8581V0.192383H26.9221Z" fill="white"/>
<path d="M5.4 2.04038H0V0.192383H12.792V2.04038H7.44V16.9924H5.4V2.04038Z" fill="white"/>
</svg>
