<svg width="226" height="18" viewBox="0 0 226 18" fill="none" xmlns="http://www.w3.org/2000/svg">
<path d="M211.188 0.200195H216.635C218.219 0.200195 219.66 0.520195 220.956 1.1602C222.268 1.7842 223.308 2.7282 224.076 3.9922C224.844 5.2562 225.228 6.7922 225.228 8.6002C225.228 10.4082 224.844 11.9442 224.076 13.2082C223.308 14.4722 222.268 15.4242 220.956 16.0642C219.66 16.6882 218.219 17.0002 216.635 17.0002H211.188V0.200195ZM216.348 14.2402C217.964 14.2402 219.308 13.7842 220.38 12.8722C221.468 11.9602 222.012 10.5362 222.012 8.6002C222.012 6.6642 221.468 5.2402 220.38 4.3282C219.308 3.4002 217.964 2.9362 216.348 2.9362H214.331V14.2402H216.348Z" fill="black"/>
<path d="M201.277 17.1918C199.661 17.1918 198.205 16.8238 196.909 16.0878C195.629 15.3358 194.621 14.3118 193.885 13.0158C193.149 11.7038 192.781 10.2318 192.781 8.59981C192.781 6.96781 193.149 5.50381 193.885 4.20781C194.621 2.89581 195.629 1.87181 196.909 1.13581C198.205 0.383812 199.661 0.0078125 201.277 0.0078125C202.877 0.0078125 204.317 0.383812 205.597 1.13581C206.893 1.87181 207.909 2.89581 208.645 4.20781C209.381 5.50381 209.749 6.96781 209.749 8.59981C209.749 10.2318 209.381 11.7038 208.645 13.0158C207.909 14.3118 206.893 15.3358 205.597 16.0878C204.317 16.8238 202.877 17.1918 201.277 17.1918ZM195.973 8.59981C195.973 9.70381 196.197 10.7038 196.645 11.5998C197.109 12.4798 197.741 13.1758 198.541 13.6878C199.341 14.1838 200.245 14.4318 201.253 14.4318C202.261 14.4318 203.165 14.1838 203.965 13.6878C204.781 13.1758 205.413 12.4798 205.861 11.5998C206.325 10.7038 206.557 9.70381 206.557 8.59981C206.557 7.49581 206.325 6.49581 205.861 5.59981C205.413 4.70381 204.781 4.00781 203.965 3.51181C203.165 2.99981 202.261 2.74381 201.253 2.74381C200.245 2.74381 199.341 2.99981 198.541 3.51181C197.741 4.00781 197.109 4.70381 196.645 5.59981C196.197 6.49581 195.973 7.49581 195.973 8.59981Z" fill="black"/>
<path d="M183.699 17.1918C182.083 17.1918 180.627 16.8238 179.331 16.0878C178.051 15.3358 177.043 14.3118 176.307 13.0158C175.571 11.7038 175.203 10.2318 175.203 8.59981C175.203 6.96781 175.571 5.50381 176.307 4.20781C177.043 2.89581 178.051 1.87181 179.331 1.13581C180.627 0.383812 182.083 0.0078125 183.699 0.0078125C185.299 0.0078125 186.739 0.383812 188.019 1.13581C189.315 1.87181 190.331 2.89581 191.067 4.20781C191.803 5.50381 192.171 6.96781 192.171 8.59981C192.171 10.2318 191.803 11.7038 191.067 13.0158C190.331 14.3118 189.315 15.3358 188.019 16.0878C186.739 16.8238 185.299 17.1918 183.699 17.1918ZM178.395 8.59981C178.395 9.70381 178.619 10.7038 179.067 11.5998C179.531 12.4798 180.163 13.1758 180.963 13.6878C181.763 14.1838 182.667 14.4318 183.675 14.4318C184.683 14.4318 185.587 14.1838 186.387 13.6878C187.203 13.1758 187.835 12.4798 188.283 11.5998C188.747 10.7038 188.979 9.70381 188.979 8.59981C188.979 7.49581 188.747 6.49581 188.283 5.59981C187.835 4.70381 187.203 4.00781 186.387 3.51181C185.587 2.99981 184.683 2.74381 183.675 2.74381C182.667 2.74381 181.763 2.99981 180.963 3.51181C180.163 4.00781 179.531 4.70381 179.067 5.59981C178.619 6.49581 178.395 7.49581 178.395 8.59981Z" fill="black"/>
<path d="M173.769 0.200195V17.0002H170.601V9.7762H163.113V17.0002H159.969V0.200195H163.113V7.0162H170.601V0.200195H173.769Z" fill="black"/>
<path d="M145.633 0.200195H152.497C153.649 0.200195 154.641 0.424195 155.473 0.872195C156.321 1.3042 156.969 1.9122 157.417 2.6962C157.865 3.4642 158.089 4.3602 158.089 5.3842C158.089 7.0162 157.337 8.2242 155.833 9.0082C156.409 9.3762 156.865 9.8642 157.201 10.4722C157.553 11.0802 157.761 11.7602 157.825 12.5122L158.233 17.0002H155.089L154.681 12.8722C154.633 12.2322 154.401 11.7122 153.985 11.3122C153.569 10.8962 153.049 10.6882 152.425 10.6882H148.801V17.0002H145.633V0.200195ZM152.353 7.9522C153.233 7.9522 153.889 7.7122 154.321 7.2322C154.769 6.7362 154.993 6.1202 154.993 5.3842C154.993 4.6482 154.769 4.0482 154.321 3.5842C153.889 3.1042 153.233 2.8642 152.353 2.8642H148.801V7.9522H152.353Z" fill="black"/>
<path d="M135.715 17.1918C134.099 17.1918 132.643 16.8238 131.347 16.0878C130.067 15.3358 129.059 14.3118 128.323 13.0158C127.587 11.7038 127.219 10.2318 127.219 8.59981C127.219 6.96781 127.587 5.50381 128.323 4.20781C129.059 2.89581 130.067 1.87181 131.347 1.13581C132.643 0.383812 134.099 0.0078125 135.715 0.0078125C137.315 0.0078125 138.755 0.383812 140.035 1.13581C141.331 1.87181 142.347 2.89581 143.083 4.20781C143.819 5.50381 144.187 6.96781 144.187 8.59981C144.187 10.2318 143.819 11.7038 143.083 13.0158C142.347 14.3118 141.331 15.3358 140.035 16.0878C138.755 16.8238 137.315 17.1918 135.715 17.1918ZM130.411 8.59981C130.411 9.70381 130.635 10.7038 131.083 11.5998C131.547 12.4798 132.179 13.1758 132.979 13.6878C133.779 14.1838 134.683 14.4318 135.691 14.4318C136.699 14.4318 137.603 14.1838 138.403 13.6878C139.219 13.1758 139.851 12.4798 140.299 11.5998C140.763 10.7038 140.995 9.70381 140.995 8.59981C140.995 7.49581 140.763 6.49581 140.299 5.59981C139.851 4.70381 139.219 4.00781 138.403 3.51181C137.603 2.99981 136.699 2.74381 135.691 2.74381C134.683 2.74381 133.779 2.99981 132.979 3.51181C132.179 4.00781 131.547 4.70381 131.083 5.59981C130.635 6.49581 130.411 7.49581 130.411 8.59981Z" fill="black"/>
<path d="M114.094 0.200195H120.574C122.158 0.200195 123.43 0.584196 124.39 1.3522C125.366 2.1042 125.854 3.1602 125.854 4.5202C125.854 5.2562 125.654 5.9202 125.254 6.5122C124.854 7.1042 124.366 7.5442 123.79 7.8322C124.654 8.1522 125.35 8.6642 125.878 9.3682C126.406 10.0722 126.67 10.9602 126.67 12.0322C126.67 13.5842 126.134 14.8002 125.062 15.6802C124.006 16.5602 122.59 17.0002 120.814 17.0002H114.094V0.200195ZM120.502 14.2402C122.582 14.2402 123.622 13.4482 123.622 11.8642C123.622 10.2642 122.582 9.4642 120.502 9.4642H117.214V14.2402H120.502ZM120.358 6.7762C121.19 6.7762 121.814 6.6082 122.23 6.2722C122.662 5.9202 122.878 5.4162 122.878 4.76019C122.878 4.1042 122.662 3.6082 122.23 3.2722C121.798 2.9202 121.158 2.7442 120.31 2.7442H117.214V6.7762H120.358Z" fill="black"/>
<path d="M111.823 0.200195V17.0002H108.655V9.7762H101.167V17.0002H98.0234V0.200195H101.167V7.0162H108.655V0.200195H111.823Z" fill="black"/>
<path d="M88.6611 17.1918C87.1891 17.1918 85.8291 16.8638 84.5811 16.2078C83.3331 15.5518 82.3331 14.5838 81.5811 13.3038C80.8291 12.0078 80.4531 10.4398 80.4531 8.59981C80.4531 6.75981 80.8371 5.19981 81.6051 3.91981C82.3731 2.62381 83.3971 1.64781 84.6771 0.991811C85.9571 0.335812 87.3491 0.0078125 88.8531 0.0078125C90.1971 0.0078125 91.4131 0.255812 92.5011 0.751812C93.6051 1.24781 94.4851 1.94381 95.1411 2.83981C95.7971 3.73581 96.1651 4.75981 96.2451 5.91181H93.0771C92.9331 4.96781 92.4691 4.20781 91.6851 3.63181C90.9171 3.03981 89.9651 2.74381 88.8291 2.74381C87.8211 2.74381 86.9091 2.97581 86.0931 3.43981C85.2931 3.90381 84.6611 4.57581 84.1971 5.45581C83.7331 6.33581 83.5011 7.38381 83.5011 8.59981C83.5011 9.81581 83.7331 10.8798 84.1971 11.7918C84.6611 12.6878 85.2931 13.3758 86.0931 13.8558C86.8931 14.3358 87.7891 14.5758 88.7811 14.5758C89.5331 14.5758 90.2531 14.4238 90.9411 14.1198C91.6291 13.8158 92.1811 13.4158 92.5971 12.9198C93.0131 12.4078 93.2211 11.8558 93.2211 11.2638C93.2211 10.9918 93.1411 10.7838 92.9811 10.6398C92.8371 10.4798 92.6371 10.3998 92.3811 10.3998H88.9731V7.97581H93.4131C94.1651 7.97581 94.8211 8.23981 95.3811 8.76781C95.9411 9.29581 96.2211 9.95181 96.2211 10.7358V16.9998H93.3891V14.3358C93.0691 15.1838 92.4771 15.8718 91.6131 16.3998C90.7491 16.9278 89.7651 17.1918 88.6611 17.1918Z" fill="black"/>
<path d="M75.8125 0.200195H78.9805V17.0002H75.8125V0.200195Z" fill="black"/>
<path d="M63.0156 0.200195H74.1756V2.9362H66.1596V7.0162H72.5916V9.7522H66.1596V14.2402H74.4396V17.0002H63.0156V0.200195Z" fill="black"/>
<path d="M46.875 0.200195H50.283L57.579 12.0562V0.200195H60.723V17.0002H57.315L50.019 5.1682V17.0002H46.875V0.200195Z" fill="black"/>
<path d="M30.0625 0.200195H40.5745V2.0482H32.1265V7.4002H39.0145V9.2482H32.1265V15.1522H40.8385V17.0002H30.0625V0.200195Z" fill="black"/>
<path d="M27.1877 0.200195V17.0002H25.1237V9.2482H16.2437V17.0002H14.1797V0.200195H16.2437V7.4002H25.1237V0.200195H27.1877Z" fill="black"/>
<path d="M5.66563 2.0482H0.265625V0.200195H13.0576V2.0482H7.70563V17.0002H5.66563V2.0482Z" fill="black"/>
</svg>
