<svg width="121" height="23" viewBox="0 0 121 23" fill="none" xmlns="http://www.w3.org/2000/svg">
<path d="M2.68 18H0.184V1.44H2.68V18ZM16.3392 18H14.0112V9.24C14.0112 7.512 13.1952 6.648 11.8992 6.648C11.2032 6.648 10.6752 6.84 10.3632 7.032V6.72C10.7472 6.312 11.7792 5.64 13.0512 5.64C15.0672 5.64 16.3392 6.936 16.3392 9.072V18ZM8.92319 18H6.59519V6.024L8.92319 5.664V18ZM30.6396 18H28.3116V1.152L30.6396 0.816V18ZM24.9996 18.192C21.4716 18.192 18.9516 15.912 18.9516 12.048C18.9516 8.064 21.9516 5.64 25.3116 5.64C25.9596 5.64 26.4876 5.688 26.8956 5.784V6.36C26.4876 6.288 26.1276 6.24 25.8396 6.24C23.5356 6.24 21.3996 8.52 21.3996 12.024C21.3996 15.48 23.4876 17.592 25.5036 17.592C25.9596 17.592 26.4156 17.472 26.8236 17.304V17.856C26.2956 18.048 25.6236 18.192 24.9996 18.192ZM40.2794 17.304C41.5994 17.328 42.7514 16.824 43.3994 16.272V17.28C42.7034 17.784 41.4314 18.216 39.7754 18.216C36.0314 18.216 33.2954 15.696 33.2954 11.976C33.2954 8.352 35.7674 5.928 38.4794 5.688V6.168C37.1114 6.6 35.7434 8.448 35.7434 11.568C35.7434 15.288 37.9754 17.28 40.2794 17.304ZM40.1114 6.168V5.688C42.5594 5.952 44.0474 7.632 44.0954 9.936V10.248H37.8554V9.696H42.1034C42.0554 7.608 41.2634 6.408 40.1114 6.168ZM55.9551 18H53.2431L45.3951 5.856H48.0831L55.9551 18ZM55.4031 5.856L52.5471 10.08L52.2351 9.576L54.7311 5.856H55.4031ZM46.5951 18H45.8751L48.8031 13.776L49.1151 14.256L46.5951 18ZM59.1942 3.864C58.3782 3.864 57.7302 3.24 57.7302 2.4C57.7302 1.368 58.5942 0.912 59.1942 0.912C59.8422 0.912 60.6582 1.368 60.6582 2.4C60.6582 3.24 60.0342 3.864 59.1942 3.864ZM60.2982 18H57.9702V6.024L60.2982 5.664V18ZM73.5033 18H71.1753V9.24C71.1753 7.512 70.3593 6.648 69.0633 6.648C68.3672 6.648 67.8393 6.84 67.5273 7.032V6.72C67.9113 6.312 68.9433 5.64 70.2153 5.64C72.2313 5.64 73.5033 6.936 73.5033 9.072V18ZM66.0873 18H63.7593V6.024L66.0873 5.664V18ZM86.8677 6.024H84.5877V5.808L86.8677 4.368V6.024ZM80.2917 12.624V13.056C78.2517 12.912 76.5237 11.52 76.5237 9.36C76.5237 7.224 78.2517 5.808 80.2917 5.664V6.096C79.3797 6.408 78.5157 7.536 78.5157 9.36C78.5157 11.184 79.3317 12.288 80.2917 12.624ZM81.7797 13.056V12.624C82.7157 12.288 83.5317 11.184 83.5317 9.36C83.5317 7.536 82.6677 6.408 81.7797 6.096V5.664C83.7957 5.808 85.5237 7.224 85.5237 9.36C85.5237 11.52 83.7957 12.912 81.7797 13.056ZM81.5397 22.872V22.392C83.6517 22.272 85.0917 21.024 85.0917 19.464C85.0917 18.432 84.3957 17.664 82.9317 17.664H78.8997C77.2437 17.664 76.4757 16.872 76.4757 15.816C76.4757 14.952 77.1237 13.992 78.1797 13.512L78.5157 13.608C78.0837 13.968 77.9157 14.4 77.9157 14.76C77.9157 15.288 78.2997 15.624 79.0677 15.624H83.5077C85.7157 15.624 87.1077 16.92 87.1077 18.768C87.1077 21.288 84.5877 22.752 81.5397 22.872ZM79.8597 22.392V22.872C76.6437 22.776 75.6597 21.432 75.6597 20.232C75.6597 19.368 76.2117 18.48 76.9797 18.192L77.3877 18.312C77.0037 18.6 76.7397 19.248 76.7397 19.92C76.7397 21.24 77.9637 22.272 79.8597 22.392ZM100.899 17.616V18.168C96.1225 17.808 92.7385 14.232 92.7385 9.72C92.7385 5.208 96.2905 1.536 100.899 1.272V1.824C97.7065 2.304 95.4025 5.688 95.4025 9.72C95.4025 13.728 97.7065 17.232 100.899 17.616ZM106.275 2.304V3.456C105.339 2.616 104.115 1.968 102.651 1.824V1.272C103.971 1.344 105.219 1.68 106.275 2.304ZM102.651 18.168V17.616C104.019 17.496 105.315 16.824 106.275 15.936V17.136C105.051 17.784 103.898 18.096 102.651 18.168ZM113.839 17.664V18.168C110.935 17.976 108.295 15.6 108.295 11.904C108.295 8.28 110.935 5.904 113.839 5.688V6.192C112.159 6.672 110.743 8.88 110.743 11.904C110.743 15 112.087 17.16 113.839 17.664ZM115.351 18.168V17.664C117.103 17.16 118.447 15 118.447 11.904C118.447 8.88 117.055 6.672 115.351 6.192V5.688C118.279 5.904 120.895 8.28 120.895 11.904C120.895 15.6 118.279 17.976 115.351 18.168Z" fill="black"/>
</svg>
